<svg width="100" height="81" viewBox="0 0 100 81" fill="none" xmlns="http://www.w3.org/2000/svg">
<path d="M96.6209 29.9705L96.3086 29.823C95.3965 29.3696 94.451 28.9863 93.481 28.6763C91.0578 27.9815 88.5781 27.3213 86.1803 26.6831C85.2724 26.4444 84.3645 26.2026 83.4571 25.9577C82.9076 25.8102 82.3582 25.6664 81.7461 25.5016L80.4604 25.1636L80.4646 21.9544C80.4646 20.8208 80.4735 19.6829 80.4777 18.5493C80.4951 16.0387 80.5124 13.446 80.4646 10.899C80.3864 6.9167 78.063 3.78528 74.2413 2.5304L74.03 2.45672C73.4497 2.24045 72.8486 2.08482 72.2362 1.99195L70.2949 1.7703C66.9897 1.3899 63.5746 0.997432 60.2059 0.741298C58.5153 0.611117 56.7747 0.614463 55.0896 0.619535C54.273 0.623761 53.4611 0.628303 52.6445 0.615201C50.8853 0.593222 49.1266 0.554414 47.3633 0.515107C44.3793 0.454666 41.3192 0.388184 38.2688 0.388184C37.3567 0.388184 36.4459 0.393967 35.5366 0.40552C32.5315 0.453703 29.4693 0.640227 26.5119 0.822817C24.6573 0.935668 22.7376 1.0574 20.8483 1.13981C16.4771 1.34558 12.1359 1.97101 7.88438 3.00754C5.72909 3.57148 3.82356 4.83842 2.46961 6.6076C1.11567 8.37683 0.390702 10.5471 0.409538 12.7748C0.509709 17.8954 0.509735 23.103 0.509735 28.1408C0.509735 30.178 0.512458 32.215 0.518093 34.2516C0.52232 35.4372 0.505079 36.6232 0.492399 37.8088C0.461967 40.267 0.431461 42.8077 0.574744 45.29C0.909069 51.1096 2.17714 53.9195 8.80917 55.1706C9.31636 55.2661 9.84296 55.3354 10.3552 55.4005C10.69 55.4428 11.0286 55.4876 11.3629 55.5396C12.1059 55.6524 12.8422 55.7741 13.6389 55.9001L15.0459 56.1304L15.0721 56.4732C15.0894 56.682 15.111 56.8642 15.1284 57.0248C15.176 57.3101 15.1878 57.6009 15.1635 57.8891C14.794 60.7079 15.9927 62.6843 18.833 63.9332C19.7147 64.3196 20.5879 64.7236 21.4649 65.1277C23.8879 66.3204 26.3965 67.331 28.9698 68.1506C37.1914 70.5217 45.6304 72.6629 53.7912 74.7344L55.12 75.0725C62.3645 76.9094 69.6132 78.6077 75.7414 80.0236C79.1459 80.814 81.5217 80.4708 83.4503 78.9205C84.8831 77.7886 86.1325 76.4424 87.155 74.9293C88.1973 73.2386 89.0396 71.433 89.6652 69.5479C91.1982 65.2655 92.7054 60.8922 94.1648 56.6617C95.0102 54.2039 95.8614 51.7462 96.7186 49.2875C98.4211 44.3969 99.4198 40.2927 99.8497 36.3666C100.177 33.4058 99.001 31.0732 96.6209 29.9705ZM7.16154 9.61042C7.92233 8.81962 9.18107 8.46373 9.86282 8.32468C13.7046 7.59744 17.5875 7.10715 21.4895 6.85672C33.2332 5.92686 44.8294 5.99669 57.6809 6.16617C62.4494 6.23126 67.1139 6.37028 71.7556 7.38214C74.4222 7.96414 75.4514 9.15432 75.5469 11.7778C75.5862 12.7499 75.5774 13.741 75.5689 14.7833C75.5643 15.2871 75.56 15.8125 75.56 16.3683V16.8114L75.1213 16.8029C71.5037 16.7593 67.9094 16.7071 64.3375 16.6465C56.0638 16.5117 48.2551 16.3988 40.2591 16.3929C32.2547 16.4013 24.0897 16.545 16.1981 16.6837C12.6587 16.7493 9.10905 16.8087 5.54908 16.862L5.2232 16.8663L5.12768 16.5534C4.37744 14.0923 5.04188 11.8163 7.16154 9.61042ZM5.06813 21.4277H5.50267C8.29956 21.4105 11.0806 21.3887 13.8456 21.3625C20.0478 21.3105 26.4579 21.2587 32.7387 21.2844C38.1631 21.3149 43.6747 21.4407 49.0036 21.5624C51.2438 21.6102 53.4813 21.6621 55.7181 21.7057L64.6824 21.8883C67.3312 21.9447 69.9775 21.9997 72.6217 22.0532C73.0951 22.0621 73.5638 22.062 74.0938 22.0573L75.3618 22.0532V25.4975H74.9277C69.8765 25.5059 64.8265 25.503 59.779 25.4886C42.0199 25.4582 23.6616 25.4235 5.52465 26.2658L5.06855 26.2879L5.06813 21.4277ZM17.5545 51.2825C16.382 51.2127 15.2049 51.1392 14.0282 51.0712C12.5188 50.9541 11.0178 50.7482 9.53272 50.4545L8.42108 50.2592C6.82256 49.99 5.87161 48.9735 5.74566 47.4058C5.70677 46.9193 5.65855 46.4337 5.61543 45.9464C5.50681 44.7954 5.394 43.6056 5.37202 42.4243C5.33314 39.9787 5.34159 37.5682 5.35047 35.0191C5.35469 33.9682 5.35609 32.9013 5.35469 31.8184V31.4185L5.74988 31.3838C6.01912 31.358 6.27521 31.332 6.51867 31.2994C7.00951 31.2355 7.50322 31.1964 7.99799 31.182C9.23132 31.1689 10.4651 31.1735 11.6938 31.1735C13.0666 31.1735 14.4344 31.1735 15.8025 31.1562C18.1174 31.1257 20.4281 31.0821 22.743 31.0385C26.9993 30.954 31.4077 30.8696 35.7417 30.8823C44.3412 30.9085 53.084 31.0039 61.5399 31.091C65.2229 31.1298 68.9044 31.1675 72.5845 31.2038C73.0625 31.2081 73.5401 31.2082 74.0613 31.2082L75.2122 31.2038C75.2122 31.2038 75.3555 33.1883 75.3597 33.4187C75.4442 37.7747 75.6813 42.1834 74.7346 47.0952C74.1179 50.2918 73.3968 50.9909 70.1871 51.4731C69.9521 51.5027 69.7159 51.5188 69.4792 51.5209C65.8962 51.5598 62.3116 51.605 58.7258 51.6553C50.3697 51.7686 41.7397 51.8856 33.223 51.8856H31.9893C27.1748 51.8776 22.2841 51.5779 17.5545 51.2825ZM87.6702 55.0087C87.6482 55.174 87.6398 55.3303 87.6279 55.4779C87.6203 55.8054 87.5721 56.1309 87.4846 56.4466C86.0687 60.9023 84.6748 65.2672 83.2238 69.6493C82.903 70.5648 82.49 71.4457 81.9904 72.277C81.0957 73.8274 80.3792 74.4529 79.1197 74.4529C78.5428 74.4339 77.9705 74.3485 77.413 74.1993C75.1154 73.6393 72.8178 73.0657 70.5202 72.4968C69.1043 72.141 67.6867 71.7884 66.2682 71.4402C63.2842 70.7018 60.3023 69.9693 57.3217 69.2423C50.4639 67.5614 43.3738 65.8242 36.4137 64.0478C31.7623 62.8622 26.9719 61.6386 22.6028 59.3562C21.3213 58.6871 21.2346 58.5265 21.2604 56.8933L21.2693 56.5024L21.6602 56.4677C24.1859 56.2712 26.7244 56.3092 29.2432 56.5806C29.4546 56.5979 29.6659 56.633 29.873 56.6676C30.1497 56.7196 30.4298 56.7518 30.7111 56.7632C32.8827 56.8109 35.0558 56.8629 37.2303 56.9196C42.6202 57.0586 48.1926 57.1972 53.6648 57.1584C59.3758 57.1161 65.2563 56.8067 71.1369 56.2505C74.5245 55.9293 76.9827 54.4613 78.438 51.8945L78.6117 51.586L87.7082 54.6579L87.6702 55.0087ZM91.4399 45.0021L89.6939 50.2313L80.356 47.6645L79.8065 47.443C80.1468 46.0377 80.0694 44.8719 80.2909 43.5778C80.4257 42.8005 80.5517 40.5161 80.5517 40.5161L91.5355 44.5896L91.4399 45.0021ZM93.0989 39.5075L92.6517 39.4119C88.7945 38.5915 84.9939 37.5253 81.2728 36.2197L80.9858 36.1198V30.135L93.9108 34.465L93.0989 39.5075Z" fill="#137958"/>
<path d="M64.3048 35.2825C63.2841 34.9867 62.3719 35.2611 61.3994 35.5523C61.1124 35.6368 60.8216 35.726 60.5304 35.7995C60.396 35.8342 60.2569 35.8692 60.1179 35.908C59.3491 36.1168 58.4805 36.3553 57.7856 36.0645C56.9031 35.6908 55.9542 35.5002 54.996 35.5044C53.6021 35.5532 52.2255 35.832 50.9224 36.3295C49.9342 36.6732 49.0517 37.2659 48.3594 38.0503C47.667 38.8346 47.1886 39.7842 46.9701 40.8073C46.733 41.7831 46.7511 42.8035 47.0225 43.7701C47.2943 44.7372 47.8099 45.6176 48.5204 46.3273C50.8746 48.6337 53.7496 49.1202 57.0633 47.7778C58.0789 47.3421 59.2252 47.3218 60.2557 47.7216C61.2067 48.0429 62.6141 48.4511 63.8259 48.299C66.8691 47.9216 69.0982 45.2068 69.1244 41.8452V41.7934C69.143 40.3306 68.6815 38.9019 67.8112 37.7261C66.9409 36.5502 65.7093 35.692 64.3048 35.2825ZM55.0797 42.8614C54.9364 42.9908 54.7682 43.0897 54.5852 43.1518C54.4022 43.2139 54.2082 43.2376 54.0159 43.222C53.7724 43.2088 53.5302 43.1788 53.291 43.1315C52.9119 43.0651 52.5683 42.8669 52.321 42.5719C52.0737 42.2772 51.9381 41.9043 51.9385 41.5193C51.9389 41.2787 51.9922 41.0412 52.0949 40.8236C52.1972 40.606 52.3468 40.4136 52.5319 40.2602C52.7175 40.1068 52.9343 39.9963 53.1676 39.9364C53.4005 39.8764 53.6439 39.8684 53.8802 39.9133L54.0725 39.9868C54.4457 40.1264 54.7703 40.372 55.0066 40.6932C55.2429 41.0144 55.3802 41.3974 55.4022 41.7954C55.4259 41.9858 55.4094 42.179 55.3536 42.3626C55.2978 42.5461 55.2044 42.716 55.0793 42.8614H55.0797ZM63.7574 42.0233C63.3686 42.4676 62.8343 42.7587 62.2502 42.8441C61.9975 42.8513 61.7477 42.7845 61.5317 42.653C61.3495 42.5166 61.2007 42.3404 61.0972 42.138C60.9932 41.9356 60.937 41.7123 60.9323 41.4848C60.8977 41.2749 60.9104 41.0598 60.9687 40.8552C61.027 40.6505 61.1302 40.4613 61.2705 40.3013C61.4155 40.1557 61.5917 40.045 61.7857 39.9772C61.9801 39.9095 62.1868 39.8868 62.391 39.9104C62.6446 39.9001 62.8965 39.9559 63.1222 40.0726C63.3475 40.1893 63.5385 40.3627 63.6767 40.5757C63.8149 40.7888 63.8948 41.0341 63.9096 41.2875C63.924 41.541 63.872 41.7937 63.7591 42.021L63.7574 42.0233Z" fill="#137958"/>
<path d="M37.4207 11.9823C37.4684 12.9726 36.7778 13.3026 35.5225 13.6501L35.4316 13.6759C35.2192 13.741 35.0009 13.7848 34.7798 13.8065C34.1589 13.8196 28.4606 14.0108 27.2987 13.8544C26.8553 13.7935 26.1909 13.7063 25.9347 13.446C25.4047 12.9075 25.4698 12.2515 25.4047 11.7303C25.3265 11.079 25.8913 10.6737 26.4822 10.5664C28.5625 10.1885 30.3039 9.8327 32.4929 9.8327C33.5209 9.82797 34.5472 9.91651 35.5592 10.0972C36.7258 10.3056 37.3695 10.9616 37.4207 11.9823Z" fill="#137958"/>
<path d="M19.6924 12.4819C19.6967 13.0204 19.5534 13.9671 18.5673 14.219C17.6277 14.438 16.6767 14.6049 15.7186 14.7187C14.8368 14.7528 13.9538 14.7386 13.0735 14.6763C11.866 14.5495 10.8237 14.446 9.76406 14.2896C8.63471 14.1247 7.97455 13.5338 8.00075 12.7046C8.02696 11.9184 8.6394 11.3521 9.64703 11.1974C12.1657 10.8111 17.6857 10.6058 18.2461 10.8065L18.5762 10.9281C18.9128 11.0188 19.2077 11.223 19.4111 11.5062C19.6145 11.7893 19.7139 12.134 19.6924 12.4819Z" fill="#137958"/>
</svg>
