<svg width="101" height="93" viewBox="0 0 101 93" fill="none" xmlns="http://www.w3.org/2000/svg">
<path d="M88.7891 24.4258C88.1877 24.2979 87.5729 24.2407 86.9582 24.2555C85.8384 24.2809 84.7044 24.327 83.6089 24.3716C83.05 24.3939 82.4912 24.4155 81.9328 24.4366H81.8727L81.8013 23.2952C81.7341 22.2051 81.6644 21.0774 81.5772 19.9655C81.5342 19.4876 81.3994 19.0223 81.1807 18.5952C80.9799 18.2304 80.6719 17.936 80.2988 17.7516C79.9253 17.5672 79.5046 17.5019 79.0926 17.5642C78.6811 17.6267 78.2984 17.8138 77.9962 18.1006C77.6945 18.3874 77.4875 18.7599 77.404 19.1679C77.3222 19.654 77.2771 20.1457 77.2692 20.6386C77.2558 21.4278 77.2513 22.2172 77.2467 23.0064C77.2442 23.5331 77.24 24.0594 77.235 24.5856L77.1436 24.5907C76.6373 24.616 76.1311 24.64 75.624 24.6628C74.6006 24.7095 73.5422 24.7575 72.4971 24.8297C71.5435 24.8833 70.594 24.995 69.6541 25.1637C69.1316 25.2409 68.6583 25.515 68.3315 25.93C68.0047 26.3449 67.849 26.8692 67.8966 27.3952C67.9271 27.8856 68.1291 28.3497 68.4667 28.7066C68.8043 29.0635 69.2563 29.2908 69.7442 29.3485C70.3386 29.4332 70.9396 29.4613 71.5389 29.4321C72.8744 29.3866 74.2066 29.3315 75.5405 29.2764L77.0551 29.2142C77.0296 29.5879 77.0042 29.9615 76.9779 30.3349C76.8815 31.7218 76.7817 33.1557 76.7191 34.5739C76.6962 35.2749 76.8105 35.9736 77.0559 36.6307C77.217 37.0669 77.5104 37.4417 77.8952 37.7028C78.28 37.964 78.7371 38.0984 79.202 38.0872C79.2679 38.0872 79.3343 38.0846 79.4015 38.0792C79.8798 38.0569 80.3393 37.8857 80.7157 37.5895C81.0922 37.2934 81.3664 36.887 81.5008 36.4273C81.6277 36.0374 81.7003 35.6322 81.7174 35.2225C81.7633 33.9053 81.8009 32.5868 81.8426 31.2692C81.8635 30.5628 81.8844 29.856 81.9061 29.149H83.1469C84.0976 29.149 85.0771 29.1491 86.0467 29.1299C87.1026 29.1482 88.1514 28.9524 89.1297 28.5544C89.5671 28.3902 89.9423 28.0929 90.2023 27.7046C90.4623 27.3162 90.5938 26.8562 90.5788 26.3891C90.5462 25.9079 90.3513 25.4517 90.0262 25.0953C89.7015 24.7388 89.2653 24.5028 88.7891 24.4258Z" fill="#137958"/>
<path d="M28.6762 33.4088L58.2249 31.6605C58.3865 30.4802 58.5563 29.3054 58.7074 28.1284C60.0333 17.8005 69.0049 10.4292 76.8462 9.30062C85.4488 8.06274 95.9541 11.0116 99.2892 21.4806C100.263 24.4051 100.451 27.5341 99.8347 30.5541C99.1799 33.7102 98.2321 36.7774 96.4804 39.5173C94.1578 43.1483 90.9575 45.6767 86.7142 46.6541C85.5394 46.925 85.0619 47.4634 84.8048 48.5594C83.925 52.3039 83.0607 56.0564 82.0085 59.7546C81.4029 61.7917 80.6221 63.7725 79.6742 65.6748C79.0194 67.0266 77.5799 67.3213 76.1809 67.3442C74.8258 67.3659 73.4681 67.257 72.1125 67.229C60.904 66.9966 49.695 66.7683 38.4861 66.5442C38.1393 66.5371 37.7915 66.5734 37.1008 66.6051C37.9643 69.7595 38.7825 72.7469 39.6781 76.0194C40.4736 76.0194 41.3082 76.0249 42.1433 76.0194C53.4274 75.936 64.7115 75.8333 75.9961 75.7978C77.3404 75.8129 78.6763 76.0157 79.9643 76.4001C80.529 76.5357 81.0319 76.8558 81.3946 77.3091C81.7573 77.7627 81.958 78.3241 81.9664 78.9046C81.9743 79.4852 81.789 80.0515 81.4388 80.5152C81.0891 80.9785 80.5949 81.312 80.0344 81.4635C78.6192 81.8575 77.1843 82.178 75.7356 82.4234C77.6066 86.3169 77.3921 88.9283 75.0357 90.6074C73.0094 92.051 70.1647 91.9846 68.4832 90.4529C66.3501 88.5097 66.3918 85.7322 68.6977 82.2068H50.7484C51.917 84.016 53.205 85.6124 52.4024 87.6258C52.0293 88.6132 51.4216 89.4951 50.6315 90.195C49.6728 90.9609 48.4734 91.3624 47.2467 91.3277C46.0201 91.2931 44.8457 90.8244 43.9317 90.0055C41.8283 88.1512 41.789 85.905 43.8014 82.0983C41.9652 81.9196 40.1247 81.7986 38.3029 81.5465C36.6919 81.3232 35.7382 80.4551 35.2011 78.7682C34.0834 75.2561 32.4049 71.911 31.4324 68.3663C28.1616 56.4136 25.0943 44.4054 21.9612 32.4151C20.4128 26.4886 18.8489 20.5651 17.3961 14.6148C17.3223 14.1663 17.1372 13.7434 16.8577 13.3849C16.5782 13.0265 16.2133 12.744 15.7964 12.5631C13.0844 11.2954 10.3767 10.0191 7.67337 8.73448C6.13123 7.99826 4.56163 7.30185 3.09587 6.43249C2.37422 5.98813 1.78177 5.36205 1.37793 4.61695C1.192 4.26996 1.09172 3.88362 1.08529 3.49C1.07886 3.09639 1.16655 2.70697 1.34104 2.35409C1.51555 2.00121 1.77164 1.69511 2.08834 1.46129C2.40504 1.22746 2.77308 1.07257 3.16169 1.0097C3.9311 0.876263 4.72231 0.951068 5.4531 1.22633C10.004 3.08023 14.5339 4.98501 19.0427 6.94075C21.0919 7.83265 22.5067 9.22713 22.0176 11.7622C22.0033 12.1179 22.0701 12.4721 22.2133 12.798C24.2358 19.3289 26.2634 25.8581 28.2959 32.3855C28.3802 32.6502 28.4904 32.9088 28.6762 33.4088ZM79.1959 47.2109C78.4284 47.0715 77.7352 46.9567 77.0445 46.8181C74.8124 46.3691 72.5337 46.0731 70.3613 45.4225C66.232 44.1854 62.6176 42.0598 60.3334 38.2514C59.6239 37.0707 58.8097 36.8102 57.5655 36.844C50.3607 37.0402 43.1541 37.1691 35.9486 37.3394C33.9169 37.3878 31.8865 37.4999 29.5814 37.5938C31.7044 45.6629 33.7594 53.4729 35.7466 61.0242H75.087C76.4894 56.3089 77.8066 51.8811 79.1959 47.2109ZM81.1692 41.632C87.079 41.632 90.849 39.2394 93.0514 33.8208C93.4704 32.7625 93.8181 31.6772 94.0915 30.5725C95.8214 23.8305 92.7501 17.747 86.1491 15.628C83.0732 14.6401 79.7506 14.3014 76.5081 14.0063C75.0912 13.9304 73.6881 14.3165 72.509 15.1067C66.9682 18.9464 63.6669 24.0642 63.9219 31.1017C64.017 33.7281 64.9623 35.8851 67.0671 37.3341C68.6205 38.4554 70.3475 39.3137 72.1789 39.8745C75.1146 40.6834 78.1667 41.0682 81.1692 41.632Z" fill="#137958"/>
</svg>
