<svg width="98" height="101" viewBox="0 0 98 101" fill="none" xmlns="http://www.w3.org/2000/svg">
<g clip-path="url(#clip0_207_114)">
<path d="M38.8216 37.9553C37.024 37.6156 35.2182 37.3104 33.4287 36.9278C31.3322 36.5006 29.3521 35.6278 27.6222 34.3686C26.1174 33.261 25.0495 31.8405 25.0593 29.9573C25.0765 26.6583 25.2584 23.3593 25.4265 20.0629C25.4902 18.816 25.7515 17.5825 25.8444 16.3369C25.9287 14.899 26.311 13.4942 26.967 12.2118C27.6231 10.9295 28.5386 9.79767 29.6555 8.88802C30.9419 7.80928 32.3023 6.7 33.8179 6.03487C40.0866 3.28319 46.4534 0.879305 53.4973 1.04225C58.2044 1.15146 62.9188 1.03671 67.5619 1.98561C71.1524 2.71954 74.417 4.16756 77.1326 6.68577C79.4939 8.87508 80.8976 11.5158 80.9909 14.8144C81.0597 17.229 81.2717 19.6393 81.4174 22.0036C83.894 22.5802 86.2759 22.9926 88.5598 23.7166C90.0921 24.2083 91.5359 24.9439 92.8344 25.8951C94.7992 27.3423 95.4511 29.5519 95.5469 31.9222C95.7249 36.3288 95.8479 40.7384 96.0672 45.143C96.357 50.9431 96.8222 56.7362 97.0208 62.5389C97.2478 69.1524 97.3321 75.7732 97.3308 82.3906C97.3308 84.3486 96.7934 86.3031 96.5685 88.265C96.3535 90.1452 95.1217 91.0468 93.5275 91.6728C89.9068 93.1148 86.131 94.1321 82.2765 94.7044C73.0098 95.9977 63.6003 95.8734 54.371 94.3363C52.3553 94.013 50.3918 93.3638 48.2343 92.8216C47.9187 93.0796 47.4604 93.4364 47.0218 93.8152C42.4547 97.7596 37.1125 99.7305 31.1289 100.122C24.2893 100.57 17.7966 99.3616 11.7588 96.0596C6.45876 93.1608 2.83388 88.8876 1.56896 82.8893C-1.47208 68.4722 7.76022 53.7644 22.026 50.1374C23.1374 49.8549 24.1466 49.1751 25.2571 48.8853C26.6532 48.5216 28.1352 48.062 29.5252 48.1974C31.546 48.3965 33.5238 49.0762 35.5123 49.5806C36.3421 49.7908 37.1521 50.0767 38.1075 50.37C38.3461 46.2024 38.5774 42.1946 38.8216 37.9553ZM29.0067 95.1816C30.0472 95.0608 31.7489 94.9894 33.3952 94.6502C41.0397 93.0731 46.2939 88.8746 48.0778 80.9808C48.7691 77.9633 48.8439 74.8372 48.297 71.7901C47.1018 65.0605 43.6646 59.9583 37.5133 56.8454C35.5531 55.8536 33.5036 55.0272 31.4544 54.2283C29.2352 53.3788 26.7948 53.3005 24.5258 54.0061C16.3472 56.3626 10.5094 61.2722 7.87076 69.5333C7.16874 71.6229 6.70546 73.7851 6.48971 75.9783C5.85167 83.8601 8.704 88.9916 15.5574 92.2468C19.6067 94.1699 23.8937 95.0393 29.0067 95.1812V95.1816ZM49.5276 21.9637C54.7145 21.4508 59.637 21.139 64.4976 20.4132C67.1775 19.9939 69.7868 19.2053 72.2505 18.0701C75.1969 16.7243 75.5129 14.2564 73.4298 11.7674C73.039 11.2319 72.5523 10.7736 71.9942 10.4156C70.2576 9.48652 68.5456 8.35187 66.6757 7.86259C59.9023 6.07881 52.8442 5.6443 45.9035 6.58387C42.088 7.09637 38.4222 8.13948 35.1168 10.2002C33.2882 11.3409 31.6182 12.6737 30.6977 14.6962C29.8542 16.5493 30.2678 18.0627 32.077 18.988C33.4338 19.7199 34.9017 20.2237 36.4221 20.4791C40.854 21.0961 45.3153 21.5027 49.5276 21.9632V21.9637ZM76.1355 22.7874C73.4105 23.5919 70.9916 24.4621 68.5017 25.0103C62.0052 26.4403 55.3968 26.6622 48.773 26.4795C42.2285 26.2989 35.7092 25.9262 29.64 22.9539V30.6255C31.4639 31.8904 32.8483 32.5233 35.6034 32.8393C39.9055 33.3329 44.2202 33.7929 48.5425 34.0221C56.1858 34.4382 63.8462 33.5995 71.2186 31.5392C73.0308 31.0331 74.8405 30.4316 76.1368 29.4565L76.1355 22.7874ZM91.5093 52.0399C88.0228 53.6015 85.0303 55.1923 81.8698 56.3084C74.1543 59.033 66.14 59.0472 58.1111 58.346C54.9101 58.0661 51.7341 57.4998 48.6092 57.0725C49.5331 58.5558 50.5921 60.0525 51.4327 61.6631C52.2732 63.2736 52.9018 65.0085 53.6942 66.8547C54.5339 66.9811 55.4635 67.1935 56.4029 67.2503C65.0759 67.7851 73.7777 66.893 82.1621 64.6104C84.9035 63.8657 87.512 62.6218 90.1635 61.5616C90.8334 61.2933 91.5157 60.9394 91.5123 60.0138C91.5028 57.3876 91.5093 54.7619 91.5093 52.0395V52.0399ZM43.8909 51.1641C45.4877 51.6684 47.1306 52.3473 48.8405 52.6999C56.712 54.3161 64.802 54.5753 72.7613 53.4669C78.7036 52.6582 84.044 50.2552 88.8883 46.7554C89.5048 46.3099 90.3071 45.6805 90.4013 45.0407C90.6249 43.539 90.4731 41.9817 90.4731 40.415C90.277 40.446 90.087 40.509 89.9116 40.6012C85.9165 43.5791 81.3237 45.0007 76.4889 45.843C69.3676 47.0301 62.1221 47.2851 54.9355 46.6019C51.3458 46.2906 47.7789 45.7278 44.4111 44.3201C43.9812 44.1413 43.5395 43.9985 42.8924 43.7616C43.2351 46.288 43.536 48.5246 43.8909 51.1636V51.1641ZM51.0827 89.2397C58.1102 91.7123 83.268 91.7699 92.4629 85.6711C92.2621 83.6624 92.0553 81.6012 91.8429 79.4871C79.3528 84.2071 66.6207 84.7351 53.6908 83.3691C52.7973 85.3783 51.94 87.3083 51.0827 89.2393V89.2397ZM91.5187 67.1858C79.7363 71.4569 67.1014 72.8358 54.6754 71.2071V78.4685C54.877 78.6057 54.9355 78.6796 54.9987 78.6835C56.246 78.7618 57.4928 78.8349 58.7393 78.9028C67.0502 79.3551 75.3822 78.573 83.464 76.5811C86.2884 75.9168 89.0009 74.8454 91.517 73.3994L91.5187 67.1858ZM81.7038 27.5677C81.5662 27.7796 81.4028 27.9177 81.4209 28.02C81.9162 30.6083 80.3959 32.1204 78.5751 33.5259C76.1781 35.3747 73.3692 36.229 70.5019 36.886C62.163 38.7406 53.5837 39.2693 45.0801 38.4523C44.467 38.3986 43.8449 38.4455 43.2274 38.4455C43.6606 39.1311 44.3028 39.6594 45.0591 39.9524C46.496 40.507 47.9789 40.9356 49.4902 41.2332C58.4374 42.6804 67.5717 42.5064 76.4575 40.7194C79.7836 40.0715 83.0526 39.0534 85.7264 36.8568C86.8985 35.873 87.893 34.6949 88.666 33.3741C89.4717 32.0099 89.0504 30.8233 87.7502 29.9492C85.9328 28.7234 83.869 27.9105 81.7038 27.5677Z" fill="#137958"/>
<path d="M28.1243 65.5353V73.6184C29.3024 74.0625 30.403 74.4293 31.4672 74.8868C35.6471 76.6861 36.6756 80.6128 33.9351 84.2253C32.8065 85.7129 31.9143 86.3149 28.5856 87.8438C28.2718 89.4402 27.9553 91.0138 27.6548 92.59C27.4875 93.4684 27.0683 94.1481 26.1095 94.1705C25.0978 94.1941 24.7423 93.3691 24.5617 92.5767C24.2233 91.086 23.9929 89.57 23.6859 87.8898C22.4618 87.563 21.1294 87.2173 19.803 86.8489C19.1607 86.6975 18.532 86.4937 17.9233 86.2396C16.7104 85.6738 16.2224 84.7275 16.4546 83.5873C16.6695 82.5296 17.5784 81.861 18.9779 81.9534C20.5025 82.0528 22.0173 82.3116 23.4976 82.4965C24.1159 80.7917 24.1855 79.777 23.9172 76.8744C22.8853 76.4875 21.7696 76.1461 20.7197 75.662C16.4718 73.7027 15.5357 69.4595 18.5458 65.8716C19.7884 64.3091 21.4256 63.1065 23.2882 62.3885C24.4241 61.9766 24.879 61.2848 24.922 60.1068C24.9323 59.3015 25.1079 58.5069 25.438 57.7726C25.5797 57.5357 25.7763 57.3366 26.0112 57.1921C26.2461 57.0477 26.5124 56.9617 26.7876 56.9419C27.0539 57.0176 27.2984 57.1556 27.5008 57.3443C27.7031 57.5335 27.8575 57.7683 27.951 58.0288C28.1353 58.9683 28.236 59.9223 28.252 60.8798C29.2643 61.1103 30.2642 61.3923 31.2475 61.7255C32.8163 62.3429 33.5589 63.5601 33.3675 64.9472C33.1981 66.1751 32.5304 66.59 31.385 66.0857C30.3823 65.6454 29.4485 64.9927 28.1243 65.5353ZM24.2513 67.1378C22.1015 68.4134 21.0009 69.7699 21.3981 70.7812C21.8711 71.9885 22.9739 72.2929 24.2513 72.4584V67.1378ZM28.2688 82.2862C29.6975 81.7587 31.0067 81.1275 30.9637 79.6799C30.9276 78.4661 29.59 78.2185 28.5026 78.0534C28.4403 78.0439 28.368 78.0994 28.0933 78.2025C28.0933 79.0474 28.0782 79.9727 28.1002 80.897C28.1101 81.3016 28.1952 81.7045 28.2688 82.2862Z" fill="#137958"/>
</g>
<defs>
<clipPath id="clip0_207_114">
<rect width="96.739" height="99.7486" fill="white" transform="translate(0.799805 0.608643)"/>
</clipPath>
</defs>
</svg>
