<svg width="101" height="97" viewBox="0 0 101 97" fill="none" xmlns="http://www.w3.org/2000/svg">
<path d="M45.4245 39.4548C48.5284 37.117 51.1701 35.0974 53.8437 33.1207C57.7884 30.2047 61.7542 27.3187 65.7142 24.4235C66.0526 24.1636 66.4096 23.9289 66.7824 23.7212C68.9461 22.5832 70.6007 23.5911 70.6626 26.0158C70.7644 29.9904 70.917 33.9634 71.0583 38.248C71.7731 37.8469 72.2553 37.6244 72.6875 37.3268C79.6633 32.548 86.6374 27.7674 93.6098 22.9847C94.4701 22.3564 95.4065 21.8396 96.3969 21.4468C98.5515 20.6792 99.8412 21.55 100.108 23.8318C100.175 24.5394 100.2 25.2504 100.184 25.961C100.162 45.3043 100.14 64.6476 100.118 83.9914C100.118 86.9007 100.192 89.8125 100.278 92.7219C100.33 94.4866 99.5777 95.3619 97.7398 95.3461C95.9643 95.3311 94.1896 95.1254 92.4145 95.1279C80.3249 95.1449 68.2354 95.1495 56.1467 95.2501C48.4677 95.3141 40.7886 95.4845 33.1121 95.7027C26.5038 95.8902 19.8992 96.253 13.2904 96.455C10.7347 96.5447 8.17602 96.4928 5.62603 96.2999C2.9349 96.083 1.5164 94.4837 1.48689 91.8279C1.37343 81.6614 1.23166 71.4945 1.23748 61.3277C1.24288 49.8794 1.37392 38.4312 1.50069 26.9834C1.52895 24.4298 1.73746 21.8761 1.92199 19.3271C2.02548 17.8986 2.75332 16.9897 4.34265 16.7695C8.63183 16.1751 12.9334 15.6179 17.2484 15.2854C19.7982 15.0888 20.5891 15.8299 20.927 18.3498C21.3996 21.8697 21.7014 25.4152 22.0331 28.9509C22.3577 32.4155 22.6274 35.8847 22.9499 39.686C23.6033 39.2433 24.109 38.9458 24.5645 38.5855C28.6338 35.3661 32.6712 32.105 36.7717 28.926C38.0619 27.9224 39.4418 27.0397 40.8938 26.2892C42.9961 25.2085 44.4981 26.0046 44.9254 28.3449C45.0546 29.3311 45.1149 30.3249 45.1058 31.3194C45.2122 33.8692 45.3069 36.4212 45.4245 39.4548ZM95.4651 90.8753C94.298 69.49 95.2386 48.2789 96.1966 26.8915C95.8329 27.0338 95.4797 27.2013 95.1393 27.3927C86.9694 32.9371 78.8058 38.4909 70.6489 44.0541C68.8143 45.3113 66.9162 44.6946 66.4611 42.5013C66.3601 41.7992 66.3464 41.0872 66.4195 40.3816C66.4881 38.8904 66.6448 37.4021 66.6777 35.9109C66.7238 33.8245 66.6893 31.7364 66.6893 29.2194C63.9154 31.2763 61.4583 33.0561 59.0473 34.8964C54.9227 38.0447 50.8268 41.2307 46.72 44.4024C45.4686 45.3683 44.1823 45.4689 42.7355 44.7735C41.2513 44.0603 40.6536 42.8991 40.6955 41.3493C40.755 39.1465 40.8835 36.9478 40.95 34.7463C40.987 33.5326 40.9565 32.317 40.9565 30.8727C40.3975 31.2468 40.0837 31.4101 39.8227 31.6354C36.2151 34.7434 32.591 37.8331 29.0212 40.9844C27.0504 42.7245 25.1776 44.5749 23.2545 46.3691C22.2467 47.3096 21.0804 47.7406 19.7329 47.2494C18.4408 46.776 17.9808 45.6463 17.7734 44.414C17.6942 43.779 17.6713 43.1381 17.7052 42.4988C17.7908 35.532 17.8804 28.5648 17.9741 21.5974C17.9836 20.8493 17.9741 20.101 17.9741 19.1522L4.95613 21.7502C4.95613 23.7452 4.95032 25.5803 4.95613 27.4161C4.99063 36.7297 5.04884 46.0433 5.05921 55.3569C5.07251 66.6576 4.43569 77.9632 5.33219 89.2564C5.41532 90.2934 5.61602 91.3208 5.78434 92.5058C20.819 91.9571 35.6491 91.2036 50.4884 90.9347C65.4146 90.6642 80.3474 90.8753 95.4651 90.8753Z" fill="#137958"/>
<path d="M21.4676 1.61056C23.2777 2.15087 25.1179 2.60803 26.8901 3.2564C28.8851 3.98373 30.8056 4.91357 32.7827 5.69493C35.0175 6.57812 37.018 6.19023 38.9669 4.72018C40.5771 3.56145 42.2742 2.52866 44.043 1.63065C46.3664 0.386286 48.7504 0.519184 51.2582 1.28849C54.0254 2.13677 56.8936 2.66003 59.7215 3.30632C60.598 3.50748 61.6678 3.43097 61.7447 4.71939C61.7393 5.26431 61.5211 5.78558 61.1362 6.1714C60.7514 6.55726 60.2306 6.77716 59.6857 6.7839C57.8524 6.89133 56.0133 6.84657 54.1875 6.65036C53.1917 6.56478 52.2299 6.24779 51.3779 5.72473C48.8925 4.09385 46.6851 4.73805 44.4973 6.2613C43.5659 6.91008 42.5817 7.4929 41.7033 8.20569C38.9257 10.4596 35.7598 10.9194 32.4627 9.95137C29.967 9.155 27.5253 8.19842 25.1528 7.08767C21.9525 5.67748 17.9498 6.17327 15.488 8.63041C14.6464 9.57495 13.9687 10.6538 13.4834 11.822C13.0578 12.7164 12.6523 13.5027 11.5646 13.5259C10.6286 13.5463 9.60695 12.5667 9.68051 11.3094C9.71995 9.98134 10.0762 8.68203 10.7196 7.51954C13.136 3.61729 16.9071 2.0798 21.4676 1.61056Z" fill="#137958"/>
<path d="M22.344 55.762C24.9691 55.762 27.5952 55.7167 30.2195 55.7736C33.2713 55.8397 33.2045 55.8945 34.2677 58.8404C34.8957 60.5811 34.8433 62.6147 34.8471 64.5174C34.8504 66.0627 33.9559 66.7484 32.1401 66.9018C29.1709 67.1512 26.1967 67.354 23.2229 67.5435C20.3917 67.7235 17.5594 67.9542 14.7248 67.992C11.8396 68.0298 10.9178 67.0485 10.7233 64.2277C10.631 62.8844 10.394 61.5486 10.3462 60.2053C10.2706 58.0616 11.0457 56.0529 14.0452 56.1817C16.8053 56.3006 19.5729 56.2071 22.3401 56.2071L22.344 55.762ZM14.473 64.453L30.4002 63.2182C30.4958 61.7352 30.5708 60.574 30.6385 59.5217H13.0457C13.5424 61.2328 13.9676 62.7011 14.4746 64.453H14.473Z" fill="#137958"/>
<path d="M77.8369 65.5511C75.0078 65.3749 72.1725 65.2652 69.3517 64.9975C67.6036 64.8313 66.954 64.1783 66.7981 62.4348C66.6688 60.7391 66.6535 59.0367 66.7515 57.3389C66.8293 55.6203 67.4726 54.915 69.1376 54.6415C70.5349 54.4079 71.9443 54.2533 73.3591 54.1789C77.536 53.9711 81.713 53.7658 85.8958 53.6744C88.8051 53.6104 89.3999 54.2562 89.5337 57.0987C89.584 58.1618 89.6634 59.2241 89.6875 60.2877C89.7669 63.8487 88.3862 64.8367 84.6527 65.4414C83.5488 65.6197 82.3867 65.436 81.2517 65.4285C80.1166 65.421 78.9807 65.4285 77.8436 65.4285L77.8369 65.5511ZM85.4989 57.2408C80.3252 56.5596 75.086 56.5305 69.9049 57.1535C69.749 58.8335 69.6139 60.2773 69.4593 61.961L85.4989 61.4207V57.2408Z" fill="#137958"/>
<path d="M51.2666 65.7431C48.4358 65.5926 45.59 65.5739 42.778 65.2568C39.5702 64.8952 38.9586 63.9842 39.208 60.7502C39.5289 56.5849 39.5406 56.5338 43.6292 56.1855C48.4304 55.7765 53.237 55.4278 58.0437 55.0774C60.101 54.927 60.9505 55.5346 61.2793 57.5678C61.5403 59.1742 61.6812 60.7976 61.7015 62.4248C61.7252 64.5328 60.9601 65.295 58.7215 65.3757C56.2424 65.4654 53.757 65.396 51.2745 65.396C51.2716 65.512 51.2691 65.6275 51.2666 65.7431ZM57.8371 61.458C57.7473 60.355 57.675 59.4705 57.5927 58.4614C52.4129 58.6522 47.4287 58.7424 42.4895 59.5986V62.239C47.6187 62.4817 52.7599 62.2199 57.8384 61.458H57.8371Z" fill="#137958"/>
</svg>
