<svg width="101" height="96" viewBox="0 0 101 96" fill="none" xmlns="http://www.w3.org/2000/svg">
<g clip-path="url(#clip0_207_109)">
<path d="M8.94777 16.4539C8.56129 16.4588 8.17478 16.4515 7.7883 16.4447C7.06034 16.4191 6.33153 16.4309 5.60477 16.4801C2.88893 16.7064 1.78282 17.8383 1.65844 20.5164C1.47186 24.5584 1.3107 28.6686 1.15482 32.6437L0.981198 37.0436C0.969487 37.3332 0.971482 37.6241 0.986424 37.9101C1.18188 41.6145 2.57315 43.1406 6.30221 43.742C6.62003 43.7929 6.94266 43.8288 7.26694 43.863C8.36983 43.9841 9.41372 44.1006 10.3648 44.8332C10.3894 45.3294 10.4186 45.8276 10.4456 46.3258C10.5147 47.5154 10.5866 48.7461 10.5975 49.9543C10.6483 55.5893 10.6935 61.2244 10.7331 66.8594C10.78 73.089 10.8308 79.3183 10.8858 85.5471C10.8863 87.4919 10.99 89.435 11.1963 91.3689C11.5101 94.045 12.2818 94.8094 14.9488 95.0886L15.9181 95.1911C18.4864 95.5081 21.0692 95.6953 23.6564 95.7518C26.37 95.7643 29.0757 95.7703 31.7737 95.7707C38.8493 95.7707 45.8483 95.7272 52.6668 95.64C56.3296 95.5932 60.0506 95.4633 63.6492 95.3375C66.2944 95.2451 69.03 95.1495 71.72 95.0882C74.3272 95.0281 76.9808 95.0128 79.5472 94.9978C81.4586 94.9869 83.4354 94.9752 85.3803 94.9454C87.5953 94.9119 88.8129 93.8869 89.2067 91.7182C89.3096 91.0611 89.3621 90.3971 89.3633 89.7323C89.3722 89.4165 89.3807 89.1006 89.4009 88.7864C89.5624 86.2712 89.7292 83.7564 89.9009 81.2429C90.2708 75.7333 90.6532 70.0365 90.9609 64.4285C91.0595 62.6306 91.2485 60.7956 91.431 59.023C91.9722 53.7668 92.5311 48.3367 90.8971 42.8469C91.0328 42.8174 91.1629 42.788 91.2885 42.7598C91.7258 42.6521 92.1696 42.571 92.6171 42.5177C93.1675 42.4657 93.7357 42.437 94.2846 42.4108C95.0975 42.3705 95.9383 42.3301 96.7637 42.2091C98.9752 41.8864 100.24 40.4999 100.422 38.2026C100.452 37.6621 100.44 37.1201 100.389 36.5813L100.382 36.4885C100.022 31.3799 99.6552 26.2721 99.2881 21.1042L98.9752 16.7169C98.9683 16.6218 98.9291 16.5321 98.8637 16.4626C98.7987 16.3931 98.7115 16.3482 98.617 16.3354C98.3714 16.3023 98.1352 16.2658 97.9058 16.2299C97.4159 16.1541 96.9535 16.0827 96.4794 16.0537C94.9549 15.9606 93.4304 15.8716 91.9051 15.7866C89.205 15.6321 86.4129 15.4728 83.6712 15.2812C83.206 15.2179 82.7529 15.0872 82.3256 14.8931C82.2283 14.8552 82.1302 14.817 82.0312 14.7795C82.1548 14.51 82.2764 14.2531 82.3947 14.0058C82.7464 13.305 83.0513 12.5816 83.3074 11.8407C83.6906 10.7148 83.8424 9.52322 83.7544 8.33736C83.6664 7.15146 83.3397 5.99565 82.7945 4.93863C82.215 3.8837 81.4287 2.95609 80.4825 2.21138C79.5363 1.46667 78.4496 0.920076 77.2873 0.604105C75.3695 0.0272012 73.3426 -0.0908139 71.3706 0.259602C65.7411 1.24752 60.6689 3.81679 55.8632 8.11537C55.2574 8.65753 54.6516 9.22386 54.0152 9.8233C53.8133 10.0141 53.6033 10.2105 53.3864 10.413C53.2362 10.171 53.0936 9.94194 52.9563 9.72129C52.5198 9.01696 52.1426 8.40896 51.7416 7.80709C50.4925 5.88806 48.7806 4.31317 46.7634 3.22696C41.2425 0.289839 35.3395 0.0321094 29.2189 2.46055C27.4723 3.18435 25.9756 4.40208 24.9124 5.96406C22.6614 9.11781 22.7522 11.7419 25.2169 14.7379C25.5539 15.1283 25.9123 15.4998 26.2903 15.8508C26.4082 15.9658 26.537 16.0928 26.6796 16.2308L23.316 16.2735C18.2312 16.3372 13.5895 16.3982 8.94777 16.4539ZM17.2422 48.676C17.1897 47.7441 17.1058 46.8203 17.0173 45.8469C16.9882 45.5303 16.9592 45.2084 16.9304 44.8812C17.0399 44.861 17.1449 44.8409 17.2463 44.8211C17.5824 44.742 17.9254 44.6957 18.2704 44.6811C26.7147 44.6694 35.1598 44.6694 43.9119 44.6702H48.9567C48.9546 46.9902 48.9341 49.2843 48.9143 51.507C48.8666 56.8935 48.8214 61.9807 49.0205 67.1264C49.2196 72.2835 49.6557 77.3146 50.1173 82.6414C50.3043 84.8004 50.4973 87.03 50.6718 89.2531C50.4569 89.3152 50.2526 89.3793 50.0567 89.4411C49.5899 89.6177 49.1004 89.7263 48.6029 89.7638C39.1558 89.8336 29.8473 89.8634 18.7776 89.8848H18.7728C18.4277 89.8691 18.0851 89.8194 17.7498 89.7359C17.6226 89.7089 17.4898 89.6815 17.3493 89.6553C17.3287 89.4423 17.3068 89.2329 17.285 89.0256C17.209 88.4156 17.1667 87.8021 17.1582 87.1877C17.1935 81.4296 17.2339 75.6716 17.2794 69.9139C17.3203 64.3592 17.359 58.8044 17.3953 53.2496C17.4042 51.6994 17.3233 50.1419 17.2426 48.676H17.2422ZM41.7174 22.2131C42.4556 22.2071 43.1947 22.1833 43.9317 22.1595C45.356 22.1144 46.8248 22.0672 48.233 22.1595C48.6966 25.0668 48.9054 33.4267 48.6094 37.4663C46.555 37.9726 44.3864 37.9387 42.2856 37.9032C41.1638 37.8859 40.0027 37.8665 38.8598 37.9286C35.7466 38.0968 32.5684 38.1203 29.4947 38.1433L27.0196 38.1642C24.137 38.1912 21.1559 38.2195 18.2373 38.086C17.443 38.0497 16.632 38.0362 15.8482 38.0237C13.323 37.9834 10.7146 37.9404 8.01045 37.1275L7.33398 22.4591C8.80432 22.3165 10.2861 22.3412 11.7508 22.5326C12.4939 22.6028 13.2623 22.6759 14.0203 22.6965C16.2382 22.7562 18.5397 22.7876 21.0569 22.7916C23.2861 22.7944 25.6841 22.7881 28.0975 22.7134C29.2791 22.6767 30.4769 22.6053 31.6347 22.5367C32.6415 22.4766 33.6826 22.4156 34.7039 22.3752C37.0667 22.2861 39.4259 22.2321 41.7174 22.2135V22.2131ZM31.7974 15.7438L29.2367 12.1694C29.4386 9.96526 30.5076 8.68654 32.6916 8.03304C35.9223 7.06489 38.9022 7.04786 41.795 7.97729C45.0766 9.03216 47.1713 11.2448 48.7245 15.332L31.7974 15.7438ZM56.5767 14.8303C60.2719 10.5182 65.3227 7.58668 70.903 6.51579C72.9149 6.10231 75.2023 5.96717 76.9679 8.06966C77.356 12.0072 77.3543 12.1346 76.2325 14.6684C76.1178 14.6877 76.0007 14.7088 75.8815 14.731C75.4551 14.8221 75.0218 14.8776 74.586 14.8968C68.9185 14.9775 62.9554 15.0395 56.8574 15.0806C56.7964 15.0346 56.7387 14.9846 56.6846 14.9307C56.6494 14.8972 56.6131 14.8634 56.5767 14.8307V14.8303ZM54.694 66.9086C54.8346 61.7573 54.8023 56.712 54.7683 51.3702C54.7538 49.1709 54.7401 46.9571 54.7385 44.7227C58.8576 44.2293 83.6022 43.097 87.725 43.2075C87.6442 43.5871 87.5606 43.9663 87.477 44.3443C87.2181 45.5117 86.952 46.7183 86.7973 47.9272C86.2348 52.3646 85.7974 56.092 85.4905 59.8621C85.1347 64.2353 84.8577 68.686 84.5896 72.9906C84.5108 74.2556 84.4312 75.5215 84.3509 76.787C84.2366 78.5825 84.128 80.3784 84.0254 82.1747C83.9042 84.232 83.7831 86.2865 83.6494 88.3414C83.6127 88.5681 83.5412 88.7876 83.4366 88.9921C83.4055 89.0651 83.3732 89.1397 83.3413 89.218H53.533C53.6541 87.0074 53.7866 84.8125 53.9183 82.6285C54.2296 77.4687 54.5515 72.1334 54.694 66.909V66.9086ZM93.2895 20.1146C93.3186 20.1571 93.338 20.2056 93.346 20.2566C93.2354 24.9542 93.1191 29.6519 92.9991 34.4866L92.9688 35.7052C92.7524 35.7479 92.5404 35.7926 92.3312 35.837C91.7262 35.9806 91.1116 36.0817 90.4925 36.1395C78.7811 36.9338 67.0104 37.355 55.5009 37.3901C54.9145 34.148 54.7356 25.8219 55.1778 22.1619C57.5766 21.6274 60.1047 21.5717 62.5556 21.5164C63.2203 21.5019 63.8846 21.4875 64.5477 21.4633C66.0654 21.4096 67.6137 21.4006 69.1111 21.3922C70.7326 21.3829 72.4093 21.3732 74.0594 21.3063C77.3858 21.1719 80.6469 20.925 83.9729 20.6608C86.1625 20.4881 88.3505 20.2768 90.4658 20.0722C91.3208 19.99 92.1632 19.9094 92.9931 19.8304C93.0456 19.8792 93.0908 19.9203 93.1308 19.9562C93.1877 20.0046 93.2406 20.057 93.2895 20.1134V20.1146Z" fill="#137958"/>
</g>
<defs>
<clipPath id="clip0_207_109">
<rect width="99.7486" height="96.0081" fill="white" transform="translate(0.726562)"/>
</clipPath>
</defs>
</svg>
