<svg width="100" height="94" viewBox="0 0 100 94" fill="none" xmlns="http://www.w3.org/2000/svg">
<path d="M64.7814 26.9121C66.8867 25.9682 68.7947 25.105 70.7098 24.2579C71.6724 23.8319 72.6271 23.3734 73.6228 23.0389C76.2384 22.1611 77.4839 22.4602 79.0856 24.7484C80.6088 26.8975 81.9748 29.1529 83.1736 31.4974C86.4176 37.9445 89.5447 44.4506 92.6629 50.9606C93.4026 52.5052 93.9186 54.1567 94.548 55.7853C95.3455 55.7061 96.1519 55.5613 96.9587 55.5613C97.4522 55.5389 97.9412 55.6656 98.3618 55.9244C98.782 56.1836 99.1139 56.5633 99.3147 57.0139C99.5698 57.4399 99.674 57.9389 99.61 58.4313C99.546 58.9233 99.3174 59.3796 98.9616 59.7264C97.9699 60.6302 96.8462 61.3783 95.6284 61.9447C87.7827 65.612 79.8977 69.194 72.041 72.838C69.3782 74.0733 66.7812 75.4524 64.1105 76.6695C63.7283 76.7998 63.3977 77.0484 63.1673 77.3793C62.9374 77.7102 62.8191 78.1059 62.831 78.5085C62.7242 80.1582 62.4581 81.7943 62.0366 83.393C61.2562 86.1697 59.6311 88.6366 57.3859 90.4536C55.1402 92.271 52.3848 93.3487 49.4987 93.5388C47.2499 93.7768 44.9782 93.6805 42.7579 93.2541C33.476 91.1669 29.8956 81.7301 35.2988 73.9294C35.8545 73.1272 36.4808 72.3738 37.2272 71.3982C29.2129 51.8271 20.4261 32.485 11.575 12.9082C10.4672 13.3394 9.51382 13.7192 8.55341 14.0818C7.07351 14.6406 5.60774 15.2488 4.09826 15.7135C3.39342 15.9811 2.62331 16.0271 1.89143 15.8454C1.15901 15.5485 0.567106 14.9852 0.235447 14.2696C-0.084984 13.4397 0.500261 12.6625 1.34945 12.3083C2.32045 11.9021 3.37399 11.6741 4.3194 11.22C6.49179 10.1762 8.65316 9.10026 10.7576 7.92798C13.0673 6.64172 14.7008 6.96005 16.054 9.29714C16.9936 10.9209 17.74 12.6554 18.5804 14.3368C18.7106 14.5969 18.8814 14.8368 19.1215 15.2307C19.8978 14.8786 20.6336 14.5645 21.357 14.2221C30.2108 10.028 39.0518 5.80655 47.9217 1.64721C50.8241 0.286145 52.3234 0.735879 53.9688 3.4897C55.1106 5.43401 56.1368 7.44362 57.0425 9.50792C59.2833 14.5152 61.4323 19.5634 63.6299 24.5905C63.9278 25.2721 64.2915 25.9277 64.7814 26.9121ZM75.6831 28.2636C61.2063 34.3843 47.5434 41.0105 33.8145 47.6629L42.4777 67.6776C49.0542 66.1322 55.1963 67.0818 60.6012 71.6301L89.0671 58.3618L75.6831 28.2636ZM59.1046 29.4416C56.109 21.6708 52.9766 14.0839 49.5516 6.55908L21.1465 19.6329C25.1037 27.4402 27.7462 35.6507 31.6845 43.1174L59.1046 29.4416ZM46.1756 88.1438C52.1341 88.1596 55.6685 85.5506 56.7146 80.3624C57.4207 76.8522 56.35 74.7465 53.0508 73.3692C51.5943 72.7615 50.072 72.3126 48.5886 71.7683C44.4508 70.2448 43.4151 70.486 40.608 73.8409C39.8743 74.6977 39.2425 75.6363 38.7252 76.6378C37.8363 78.4156 37.4011 80.3065 37.8777 82.3145C38.7653 86.0628 41.7031 88.131 46.1734 88.1429L46.1756 88.1438Z" fill="#137958"/>
<path d="M68.5196 39.6009C67.2838 39.2537 66.2479 38.9781 65.8242 37.8349C65.6008 37.3424 65.5708 36.7841 65.7403 36.2707C65.9102 35.7572 66.2673 35.3261 66.7404 35.0627C68.0968 34.2607 69.536 33.6078 71.0332 33.1151C71.6184 32.9262 72.2527 32.9549 72.8185 33.1961C73.3839 33.4374 73.8429 33.8748 74.1099 34.4273C74.3566 34.9512 74.3937 35.5492 74.2132 36.0992C74.0327 36.6492 73.6487 37.1099 73.1389 37.3871C71.701 38.2883 70.0683 38.8788 68.5196 39.6009Z" fill="#137958"/>
<path d="M42.7719 16.4448C41.5838 16.073 40.5245 15.9292 40.0518 14.7727C39.8263 14.2862 39.788 13.734 39.9441 13.2212C40.1003 12.7083 40.44 12.2705 40.8988 11.9911C42.2031 11.1454 43.6271 10.4996 45.1235 10.0751C45.684 9.93983 46.2745 10.0154 46.7826 10.2872C47.2906 10.5589 47.6803 11.0077 47.8771 11.548C48.1371 12.062 48.1896 12.6558 48.0241 13.2072C47.8586 13.7586 47.4879 14.2261 46.9878 14.5136C45.6734 15.3074 44.1852 15.8138 42.7719 16.4448Z" fill="#137958"/>
</svg>
