<svg width="63" height="101" viewBox="0 0 63 101" fill="none" xmlns="http://www.w3.org/2000/svg">
<path d="M16.6599 75.0914C12.5682 75.9224 7.34006 77.3852 3.19824 81.3585C1.12184 83.3535 0.0865279 85.7438 0.287247 88.0913C0.479417 90.3432 1.816 92.4147 4.05078 93.9244C6.44607 95.5501 9.08672 96.7817 11.872 97.5715C17.9074 99.2575 24.1436 100.117 30.4101 100.126C35.0865 100.123 39.7503 99.6402 44.3276 98.683C48.7654 97.7584 53.9014 96.3623 58.3229 93.0238C60.4592 91.4115 61.716 89.4292 61.9587 87.2909C62.2029 85.1331 61.4115 82.8962 59.6673 80.8174C57.2338 77.9165 54.0162 75.9265 49.8305 74.7335C48.2642 74.2857 46.6369 73.9869 45.0633 73.6962C44.5462 73.6005 44.0296 73.5056 43.5129 73.4047C44.146 72.4178 44.782 71.4345 45.4207 70.4558C47.0346 67.9722 48.7039 65.4032 50.2404 62.815C54.8346 55.0741 60.2454 44.6591 61.3146 32.7332C62.4411 20.1649 58.4809 11.1679 49.2067 5.22936C42.774 1.10995 35.5958 -0.275504 27.8749 1.11405C16.2014 3.21366 8.57292 10.0397 5.201 21.4029C3.19099 28.1785 3.92668 35.0298 4.79387 40.2424C6.21396 48.7952 9.42261 57.3537 15.1987 67.9926C16.0993 69.6517 17.0507 71.2334 18.0584 72.9079C18.4093 73.4902 18.7611 74.0772 19.1137 74.6692L18.6659 74.7413C17.9664 74.8541 17.3093 74.9599 16.6599 75.0914ZM31.6677 79.256C31.3993 79.6033 31.1291 79.953 30.8571 80.3056C25.4263 75.6732 21.9498 69.751 19.0026 64.0287C15.2097 56.6648 11.1562 47.8035 9.85251 37.9083C8.73776 29.4398 9.57199 23.1885 12.5579 17.6328C16.2674 10.7314 23.641 6.37305 32.2825 5.97365C32.7057 5.9541 33.1264 5.94425 33.5447 5.94425C41.4964 5.94425 48.5272 9.45715 52.5298 15.4893C55.0772 19.3306 56.2021 23.8072 56.0719 29.5763C55.9253 36.0001 54.1494 42.623 50.4831 50.4173C46.3458 59.2159 40.9426 67.6897 33.9656 76.3226C33.1872 77.2851 32.449 78.2423 31.6677 79.256ZM21.0948 78.2642C21.5304 78.2838 21.9454 78.4556 22.2674 78.75C24.7257 81.5657 27.7696 83.8099 31.1861 85.3264C32.6815 85.986 34.0133 85.5817 35.141 84.1254L35.9093 83.1299C36.9499 81.7791 38.0264 80.3822 39.1473 79.0708C39.4793 78.6575 39.9568 78.3868 40.4819 78.3143C44.3247 78.6266 48.3652 79.2137 51.8751 81.3764C53.3546 82.3201 54.6803 83.4858 55.8052 84.833C56.0495 85.0756 56.2412 85.3659 56.3695 85.6855C56.4977 86.0051 56.5596 86.3475 56.5511 86.692C56.492 87.0425 56.3622 87.3772 56.1696 87.676C55.977 87.9749 55.7258 88.2314 55.431 88.4305C54.1017 89.4886 52.6442 90.3741 51.0922 91.0667C45.2673 93.6532 38.5524 94.9422 29.9618 95.1222C23.7294 94.8925 17.6577 94.5245 11.8959 92.5833C10.0178 91.9705 8.2299 91.1094 6.57957 90.0236C5.42249 89.2435 4.78202 88.3315 4.72787 87.3853C4.67657 86.4941 5.15781 85.5886 6.11906 84.7662C8.18976 82.9948 10.5092 81.5368 13.0033 80.4392C14.9951 79.5712 17.2177 79.0907 19.3673 78.6262C19.8938 78.5122 20.4202 78.3982 20.943 78.2789C20.9929 78.2687 21.0438 78.2638 21.0948 78.2642Z" fill="#137958"/>
<path d="M43.9919 27.487C43.9919 27.3755 43.9964 27.264 43.9993 27.1529C44.0192 26.6643 44.0127 26.175 43.9789 25.6871C43.8384 23.8092 43.2269 21.997 42.2001 20.4182C41.1737 18.8394 39.7654 17.5449 38.1059 16.6548C36.4932 15.8048 34.6898 15.3817 32.8674 15.426C31.045 15.4703 29.2641 15.9804 27.6946 16.9077C23.9896 19.0093 21.6641 22.5486 20.9703 27.1427C20.0694 33.1081 24.3089 38.9456 30.42 40.1552C31.243 40.3197 32.0801 40.4033 32.9194 40.4051C38.0627 40.4051 42.2616 37.1248 43.54 31.8202C43.7379 30.9272 43.8881 30.0242 43.9899 29.1152C44.0436 28.706 44.0966 28.297 44.1589 27.8898C44.1674 27.8341 44.1646 27.7772 44.1503 27.7226C44.1365 27.668 44.1116 27.6169 44.0774 27.5721C44.053 27.5399 44.0241 27.5112 43.9919 27.487ZM39.3701 27.9822L39.3615 28.1528C39.353 28.3369 39.3412 28.5852 39.3208 28.8335C39.1071 31.4188 38.1608 33.4305 36.5844 34.6503C35.1826 35.7353 33.3494 36.1192 31.2795 35.7626C30.199 35.5371 29.1751 35.096 28.269 34.4657C27.3629 33.8353 26.5933 33.0285 26.0062 32.0938C25.4708 31.2421 25.1269 30.2845 24.9984 29.2867C24.8699 28.2891 24.9599 27.2752 25.262 26.3157C26.0416 23.6543 27.1935 21.0831 30.3166 20.2957C31.0707 20.1011 31.8459 20.0004 32.6247 19.9957C34.1001 19.9604 35.5433 20.4296 36.7159 21.3259C38.4682 22.7118 39.4108 25.0759 39.3701 27.9804V27.9822Z" fill="#137958"/>
</svg>
