<svg width="103" height="101" viewBox="0 0 103 101" fill="none" xmlns="http://www.w3.org/2000/svg">
<g clip-path="url(#clip0_207_96)">
<path d="M73.3158 53.4516C76.1211 53.3043 78.7628 52.8274 81.3297 53.0898C92.9282 54.2757 101.59 63.1503 102.768 74.7819C103.829 85.2504 98.6268 93.8639 88.8441 97.6711C81.5561 100.508 74.2045 100.956 66.858 97.847C61.7541 95.6868 57.7889 92.2936 55.5206 87.1127C55.4074 86.8558 55.2476 86.6161 55.078 86.3113C52.9289 86.4268 50.8226 86.5454 48.7159 86.6537C37.113 87.2458 25.5116 87.8738 13.9058 88.3996C10.772 88.5413 7.62529 88.3893 4.48246 88.3255C3.7537 88.3058 3.03111 88.1855 2.33514 87.968C0.277519 87.3331 -0.406045 85.9084 0.315574 83.8955C3.414 75.1086 8.18122 67.0058 14.354 60.035C21.8855 51.5585 31.0752 46.2127 42.4668 45.0423C50.2604 44.2417 57.7449 45.553 64.9401 48.5956C66.5034 49.2048 68.0274 49.9103 69.504 50.7083C70.8224 51.5538 72.0948 52.4695 73.3158 53.4516ZM67.5365 56.5014C61.4636 53.7692 55.592 51.5165 49.0888 51.216C40.0414 50.7977 31.8545 53.0783 24.7028 58.6616C17.0171 64.6619 11.3868 72.3691 6.83445 80.9188C6.63736 81.3576 6.46997 81.8089 6.33333 82.2699C10.4622 82.6445 51.5908 79.8336 54.1885 79.0061C54.253 78.7012 54.3495 78.3536 54.3974 78C55.0348 73.6453 56.4708 69.4465 58.6322 65.6149C59.3577 64.349 60.2613 63.1944 61.3153 62.1866C63.2281 60.3013 65.2768 58.5512 67.5373 56.5014H67.5365ZM77.6793 92.33C81.1973 92.3077 84.6699 91.5286 87.8619 90.0452C90.2844 88.9659 92.3138 87.1606 93.6699 84.8775C96.811 79.563 96.206 70.9679 92.2317 66.2434C89.065 62.479 85.1078 59.8787 80.115 59.4669C74.3233 58.9895 69.4014 61.0427 66.0561 65.8482C62.7052 70.6618 61.8973 76.2349 62.5129 81.9972C62.7996 84.3548 63.9737 86.5138 65.795 88.0335C69.1835 91.0525 73.2107 92.3047 77.6802 92.33H77.6793Z" fill="#137958"/>
<path d="M43.8442 39.9482C38.8776 39.744 34.0125 38.7113 29.7362 35.6709C24.9058 32.2366 21.0922 25.8467 24.0863 17.8677C24.8408 15.8112 25.8632 13.8637 27.1267 12.0755C28.854 9.71208 30.7606 7.48555 32.8295 5.41583C37.4865 0.706659 45.4335 -0.460773 51.0458 2.98933C58.4068 7.51312 62.6844 14.3071 63.5253 22.8816C64.0247 27.9709 61.7629 32.3077 57.7271 35.5438C53.7238 38.7533 49.013 39.8339 43.8442 39.9482ZM43.1781 33.4592C46.2854 33.3809 49.3061 33.0078 52.0131 31.3378C55.696 29.0662 57.1828 25.3284 56.0771 21.1539C55.2145 17.8909 53.4405 15.1501 51.1595 12.7292C48.8869 10.3172 46.2282 8.6878 42.7688 8.58291C38.96 8.46732 36.0775 10.5159 33.4243 12.7471C31.4803 14.3821 30.3023 16.7534 29.5094 19.2402C27.7508 24.7547 29.6747 29.2396 34.9042 31.741C37.5275 32.9983 40.3345 33.3398 43.1781 33.4589V33.4592Z" fill="#137958"/>
<path d="M81.85 78.5551C81.85 80.6332 81.8829 82.3152 81.8346 83.9951C81.8239 84.7241 81.7073 85.4472 81.4889 86.1429C81.3514 86.6065 81.0651 87.0119 80.6746 87.2966C80.2841 87.5813 79.8107 87.7294 79.3279 87.7179C78.8447 87.7457 78.3666 87.6079 77.9718 87.3275C77.5771 87.0466 77.2895 86.6399 77.1562 86.1737C76.9336 85.3308 76.8208 84.4626 76.8208 83.5909C76.7709 81.9997 76.8067 80.4054 76.8067 78.5727C74.8636 78.5727 73.053 78.6219 71.247 78.5547C70.0815 78.5282 68.9215 78.3856 67.7842 78.1305C67.2843 78.0179 66.8365 77.7405 66.5131 77.3423C66.1901 76.9442 66.0094 76.4489 66.0013 75.9356C65.9931 75.4223 66.1572 74.9214 66.4678 74.513C66.7784 74.1046 67.2168 73.813 67.7128 73.6846C68.6246 73.435 69.5645 73.3014 70.5096 73.2873C72.5356 73.2304 74.5646 73.2698 76.6717 73.2698C76.6717 71.2037 76.6628 69.3928 76.6764 67.5828C76.6444 66.9278 76.6846 66.2715 76.7961 65.6255C77.0097 64.7153 77.545 64.0222 78.6029 64.0115C79.0494 63.979 79.4924 64.1079 79.8522 64.3741C80.2123 64.6409 80.4648 65.0279 80.5648 65.465C80.8399 66.6752 81.0352 67.9026 81.1493 69.139C81.301 70.4288 81.3787 71.7273 81.4911 73.0728C82.7668 73.0728 83.8486 73.1036 84.9274 73.0643C86.169 73.0193 87.408 72.8523 88.6483 72.8446C90.6294 72.8327 91.8791 73.7903 91.9885 75.2913C92.0906 76.6967 91.0669 77.8471 89.2289 78.1502C87.784 78.3561 86.3292 78.4879 84.871 78.5449C83.9392 78.6009 83.0018 78.5551 81.85 78.5551Z" fill="#137958"/>
</g>
<defs>
<clipPath id="clip0_207_96">
<rect width="102.966" height="99.7486" fill="white" transform="translate(0 0.580566)"/>
</clipPath>
</defs>
</svg>
